<?xml version="1.0" encoding="UTF-8" standalone="no"?>
<!DOCTYPE svg PUBLIC "-//W3C//DTD SVG 1.1//EN"
 "http://www.w3.org/Graphics/SVG/1.1/DTD/svg11.dtd">
<!-- Generated by graphviz version 14.1.2 (0)
 -->
<!-- Title: MyMediaSub Pages: 1 -->
<svg width="2095pt" height="597pt"
 viewBox="0.00 0.00 2095.00 597.00" xmlns="http://www.w3.org/2000/svg" xmlns:xlink="http://www.w3.org/1999/xlink">
<g id="graph0" class="graph" transform="scale(1 1) rotate(0) translate(21.6 575.1)">
<title>MyMediaSub</title>
<polygon fill="#08111f" stroke="none" points="-21.6,21.6 -21.6,-575.1 2073.15,-575.1 2073.15,21.6 -21.6,21.6"/>
<text xml:space="preserve" text-anchor="middle" x="1025.78" y="-529.55" font-family="Noto Sans CJK SC" font-size="21.00" fill="#dbeafe">my&#45;media&#45;sub v1.13.0+ 当前架构</text>
<g id="clust1" class="cluster">
<title>cluster_clients</title>
<path fill="#08111f" stroke="#1e3a5f" stroke-dasharray="5,2" d="M20,-99C20,-99 186.03,-99 186.03,-99 192.03,-99 198.03,-105 198.03,-111 198.03,-111 198.03,-370 198.03,-370 198.03,-376 192.03,-382 186.03,-382 186.03,-382 20,-382 20,-382 14,-382 8,-376 8,-370 8,-370 8,-111 8,-111 8,-105 14,-99 20,-99"/>
<text xml:space="preserve" text-anchor="middle" x="103.02" y="-358.05" font-family="Noto Sans CJK SC" font-size="21.00" fill="#dbeafe">访问端</text>
</g>
<g id="clust2" class="cluster">
<title>cluster_http</title>
<path fill="#08111f" stroke="#4c1d95" stroke-dasharray="5,2" d="M281.53,-117C281.53,-117 548.84,-117 548.84,-117 554.84,-117 560.84,-123 560.84,-129 560.84,-129 560.84,-382 560.84,-382 560.84,-388 554.84,-394 548.84,-394 548.84,-394 281.53,-394 281.53,-394 275.53,-394 269.53,-388 269.53,-382 269.53,-382 269.53,-129 269.53,-129 269.53,-123 275.53,-117 281.53,-117"/>
<text xml:space="preserve" text-anchor="middle" x="415.19" y="-370.05" font-family="Noto Sans CJK SC" font-size="21.00" fill="#dbeafe">Axum 接入与安全</text>
</g>
<g id="clust3" class="cluster">
<title>cluster_core</title>
<path fill="#08111f" stroke="#14532d" stroke-dasharray="5,2" d="M607.84,-74C607.84,-74 1292.21,-74 1292.21,-74 1298.21,-74 1304.21,-80 1304.21,-86 1304.21,-86 1304.21,-319 1304.21,-319 1304.21,-325 1298.21,-331 1292.21,-331 1292.21,-331 607.84,-331 607.84,-331 601.84,-331 595.84,-325 595.84,-319 595.84,-319 595.84,-86 595.84,-86 595.84,-80 601.84,-74 607.84,-74"/>
<text xml:space="preserve" text-anchor="middle" x="950.03" y="-307.05" font-family="Noto Sans CJK SC" font-size="21.00" fill="#dbeafe">AppContext 与业务层</text>
</g>
<g id="clust4" class="cluster">
<title>cluster_store</title>
<path fill="#08111f" stroke="#713f12" stroke-dasharray="5,2" d="M1357.82,-8C1357.82,-8 2031.55,-8 2031.55,-8 2037.55,-8 2043.55,-14 2043.55,-20 2043.55,-20 2043.55,-108 2043.55,-108 2043.55,-114 2037.55,-120 2031.55,-120 2031.55,-120 1357.82,-120 1357.82,-120 1351.82,-120 1345.82,-114 1345.82,-108 1345.82,-108 1345.82,-20 1345.82,-20 1345.82,-14 1351.82,-8 1357.82,-8"/>
<text xml:space="preserve" text-anchor="middle" x="1694.69" y="-96.05" font-family="Noto Sans CJK SC" font-size="21.00" fill="#dbeafe">JSON 单写持久化</text>
</g>
<g id="clust5" class="cluster">
<title>cluster_external</title>
<path fill="#08111f" stroke="#7f1d1d" stroke-dasharray="5,2" d="M1351.21,-128C1351.21,-128 1553.21,-128 1553.21,-128 1559.21,-128 1565.21,-134 1565.21,-140 1565.21,-140 1565.21,-494 1565.21,-494 1565.21,-500 1559.21,-506 1553.21,-506 1553.21,-506 1351.21,-506 1351.21,-506 1345.21,-506 1339.21,-500 1339.21,-494 1339.21,-494 1339.21,-140 1339.21,-140 1339.21,-134 1345.21,-128 1351.21,-128"/>
<text xml:space="preserve" text-anchor="middle" x="1452.21" y="-482.05" font-family="Noto Sans CJK SC" font-size="21.00" fill="#dbeafe">外部系统（失败隔离）</text>
</g>
<!-- Browser -->
<g id="node1" class="node">
<title>Browser</title>
<path fill="#172554" stroke="#3b82f6" d="M134.91,-148.76C134.91,-148.76 71.13,-148.76 71.13,-148.76 65.13,-148.76 59.13,-142.76 59.13,-136.76 59.13,-136.76 59.13,-119.24 59.13,-119.24 59.13,-113.24 65.13,-107.24 71.13,-107.24 71.13,-107.24 134.91,-107.24 134.91,-107.24 140.91,-107.24 146.91,-113.24 146.91,-119.24 146.91,-119.24 146.91,-136.76 146.91,-136.76 146.91,-142.76 140.91,-148.76 134.91,-148.76"/>
<text xml:space="preserve" text-anchor="middle" x="103.02" y="-133.5" font-family="Noto Sans CJK SC" font-size="10.00" fill="#e2e8f0">WebUI / PWA</text>
<text xml:space="preserve" text-anchor="middle" x="103.02" y="-118.5" font-family="Noto Sans CJK SC" font-size="10.00" fill="#e2e8f0">Alpine 静态模块</text>
</g>
<!-- Auth -->
<g id="node5" class="node">
<title>Auth</title>
<path fill="#2e1065" stroke="#8b5cf6" d="M401.31,-166.76C401.31,-166.76 289.53,-166.76 289.53,-166.76 283.53,-166.76 277.53,-160.76 277.53,-154.76 277.53,-154.76 277.53,-137.24 277.53,-137.24 277.53,-131.24 283.53,-125.24 289.53,-125.24 289.53,-125.24 401.31,-125.24 401.31,-125.24 407.31,-125.24 413.31,-131.24 413.31,-137.24 413.31,-137.24 413.31,-154.76 413.31,-154.76 413.31,-160.76 407.31,-166.76 401.31,-166.76"/>
<text xml:space="preserve" text-anchor="middle" x="345.42" y="-151.5" font-family="Noto Sans CJK SC" font-size="10.00" fill="#e2e8f0">Basic Auth / Bearer Scope</text>
<text xml:space="preserve" text-anchor="middle" x="345.42" y="-136.5" font-family="Noto Sans CJK SC" font-size="10.00" fill="#e2e8f0">CSRF + 登录限流</text>
</g>
<!-- Browser&#45;&gt;Auth -->
<g id="edge1" class="edge">
<title>Browser&#45;&gt;Auth</title>
<path fill="none" stroke="#64748b" d="M147.37,-128.07C191.21,-128.15 252.53,-128.25 252.53,-128.25 252.53,-128.25 259.4,-129.58 269.39,-131.51"/>
<polygon fill="#64748b" stroke="#64748b" points="268.86,-133.72 275.67,-132.72 269.72,-129.25 268.86,-133.72"/>
<text xml:space="preserve" text-anchor="middle" x="233.78" y="-133.4" font-family="Noto Sans CJK SC" font-size="8.00" fill="#a5b4fc">Basic Auth</text>
</g>
<!-- Routes -->
<g id="node7" class="node">
<title>Routes</title>
<path fill="#312e81" stroke="#6366f1" d="M540.09,-228.76C540.09,-228.76 477.06,-228.76 477.06,-228.76 471.06,-228.76 465.06,-222.76 465.06,-216.76 465.06,-216.76 465.06,-199.24 465.06,-199.24 465.06,-193.24 471.06,-187.24 477.06,-187.24 477.06,-187.24 540.09,-187.24 540.09,-187.24 546.09,-187.24 552.09,-193.24 552.09,-199.24 552.09,-199.24 552.09,-216.76 552.09,-216.76 552.09,-222.76 546.09,-228.76 540.09,-228.76"/>
<text xml:space="preserve" text-anchor="middle" x="508.58" y="-213.5" font-family="Noto Sans CJK SC" font-size="10.00" fill="#e2e8f0">src/api/*</text>
<text xml:space="preserve" text-anchor="middle" x="508.58" y="-198.5" font-family="Noto Sans CJK SC" font-size="10.00" fill="#e2e8f0">统一 JSON 信封</text>
</g>
<!-- Browser&#45;&gt;Routes -->
<g id="edge8" class="edge">
<title>Browser&#45;&gt;Routes</title>
<path fill="none" stroke="#64748b" d="M147.07,-121.3C196.11,-113.67 269.53,-102.25 269.53,-102.25 269.53,-102.25 413.31,-102.25 413.31,-102.25 413.31,-102.25 464.31,-177 464.31,-177 464.31,-177 467.32,-179.16 471.75,-182.33"/>
<polygon fill="#64748b" stroke="#64748b" points="470.16,-183.99 476.77,-185.93 472.81,-180.29 470.16,-183.99"/>
<text xml:space="preserve" text-anchor="middle" x="345.42" y="-107.4" font-family="Noto Sans CJK SC" font-size="8.00" fill="#a5b4fc">apiData / apiFetch</text>
</g>
<!-- SSE -->
<g id="node10" class="node">
<title>SSE</title>
<path fill="#111d2c" stroke="#334155" d="M360.81,-285C360.81,-285 330.03,-285 330.03,-285 324.03,-285 318.03,-279 318.03,-273 318.03,-273 318.03,-261 318.03,-261 318.03,-255 324.03,-249 330.03,-249 330.03,-249 360.81,-249 360.81,-249 366.81,-249 372.81,-255 372.81,-261 372.81,-261 372.81,-273 372.81,-273 372.81,-279 366.81,-285 360.81,-285"/>
<text xml:space="preserve" text-anchor="middle" x="345.42" y="-265" font-family="Noto Sans CJK SC" font-size="10.00" fill="#e2e8f0">Job SSE</text>
</g>
<!-- Browser&#45;&gt;SSE -->
<g id="edge9" class="edge">
<title>Browser&#45;&gt;SSE</title>
<path fill="none" stroke="#64748b" stroke-dasharray="5,2" d="M147.37,-140.84C191.21,-153.83 252.53,-172 252.53,-172 252.53,-172 269.53,-239 269.53,-239 269.53,-239 290.56,-246.86 310.34,-254.26"/>
<polygon fill="#64748b" stroke="#64748b" points="309.5,-256.37 316.39,-256.52 311.1,-252.11 309.5,-256.37"/>
</g>
<!-- Automation -->
<g id="node2" class="node">
<title>Automation</title>
<path fill="#111d2c" stroke="#334155" d="M178.03,-210.76C178.03,-210.76 28,-210.76 28,-210.76 22,-210.76 16,-204.76 16,-198.76 16,-198.76 16,-181.24 16,-181.24 16,-175.24 22,-169.24 28,-169.24 28,-169.24 178.03,-169.24 178.03,-169.24 184.03,-169.24 190.03,-175.24 190.03,-181.24 190.03,-181.24 190.03,-198.76 190.03,-198.76 190.03,-204.76 184.03,-210.76 178.03,-210.76"/>
<text xml:space="preserve" text-anchor="middle" x="103.02" y="-195.5" font-family="Noto Sans CJK SC" font-size="10.00" fill="#e2e8f0">自动化客户端</text>
<text xml:space="preserve" text-anchor="middle" x="103.02" y="-180.5" font-family="Noto Sans CJK SC" font-size="10.00" fill="#e2e8f0">scoped Bearer + Idempotency&#45;Key</text>
</g>
<!-- Automation&#45;&gt;Auth -->
<g id="edge2" class="edge">
<title>Automation&#45;&gt;Auth</title>
<path fill="none" stroke="#64748b" d="M190.47,-174.18C216.33,-169.44 244.46,-164.3 269.52,-159.71"/>
<polygon fill="#64748b" stroke="#64748b" points="269.71,-161.99 275.7,-158.58 268.89,-157.51 269.71,-161.99"/>
<text xml:space="preserve" text-anchor="middle" x="233.78" y="-174.47" font-family="Noto Sans CJK SC" font-size="8.00" fill="#a5b4fc">Bearer</text>
</g>
<!-- Telegram -->
<g id="node3" class="node">
<title>Telegram</title>
<path fill="#111d2c" stroke="#334155" d="M154.78,-272.76C154.78,-272.76 51.25,-272.76 51.25,-272.76 45.25,-272.76 39.25,-266.76 39.25,-260.76 39.25,-260.76 39.25,-243.24 39.25,-243.24 39.25,-237.24 45.25,-231.24 51.25,-231.24 51.25,-231.24 154.78,-231.24 154.78,-231.24 160.78,-231.24 166.78,-237.24 166.78,-243.24 166.78,-243.24 166.78,-260.76 166.78,-260.76 166.78,-266.76 160.78,-272.76 154.78,-272.76"/>
<text xml:space="preserve" text-anchor="middle" x="103.02" y="-257.5" font-family="Noto Sans CJK SC" font-size="10.00" fill="#e2e8f0">Telegram</text>
<text xml:space="preserve" text-anchor="middle" x="103.02" y="-242.5" font-family="Noto Sans CJK SC" font-size="10.00" fill="#e2e8f0">Long polling / Webhook</text>
</g>
<!-- TelegramAuth -->
<g id="node6" class="node">
<title>TelegramAuth</title>
<path fill="#111d2c" stroke="#334155" d="M384.44,-228.76C384.44,-228.76 306.41,-228.76 306.41,-228.76 300.41,-228.76 294.41,-222.76 294.41,-216.76 294.41,-216.76 294.41,-199.24 294.41,-199.24 294.41,-193.24 300.41,-187.24 306.41,-187.24 306.41,-187.24 384.44,-187.24 384.44,-187.24 390.44,-187.24 396.44,-193.24 396.44,-199.24 396.44,-199.24 396.44,-216.76 396.44,-216.76 396.44,-222.76 390.44,-228.76 384.44,-228.76"/>
<text xml:space="preserve" text-anchor="middle" x="345.42" y="-213.5" font-family="Noto Sans CJK SC" font-size="10.00" fill="#e2e8f0">Webhook 随机路径</text>
<text xml:space="preserve" text-anchor="middle" x="345.42" y="-198.5" font-family="Noto Sans CJK SC" font-size="10.00" fill="#e2e8f0">Secret Header</text>
</g>
<!-- Telegram&#45;&gt;TelegramAuth -->
<g id="edge3" class="edge">
<title>Telegram&#45;&gt;TelegramAuth</title>
<path fill="none" stroke="#64748b" d="M167.18,-240.44C204.19,-233.66 250.6,-225.17 286.65,-218.57"/>
<polygon fill="#64748b" stroke="#64748b" points="286.7,-220.88 292.69,-217.47 285.88,-216.4 286.7,-220.88"/>
</g>
<!-- MediaClient -->
<g id="node4" class="node">
<title>MediaClient</title>
<path fill="#111d2c" stroke="#334155" d="M147.66,-334.76C147.66,-334.76 58.38,-334.76 58.38,-334.76 52.38,-334.76 46.38,-328.76 46.38,-322.76 46.38,-322.76 46.38,-305.24 46.38,-305.24 46.38,-299.24 52.38,-293.24 58.38,-293.24 58.38,-293.24 147.66,-293.24 147.66,-293.24 153.66,-293.24 159.66,-299.24 159.66,-305.24 159.66,-305.24 159.66,-322.76 159.66,-322.76 159.66,-328.76 153.66,-334.76 147.66,-334.76"/>
<text xml:space="preserve" text-anchor="middle" x="103.02" y="-319.5" font-family="Noto Sans CJK SC" font-size="10.00" fill="#e2e8f0">Jellyfin / Emby / Plex</text>
<text xml:space="preserve" text-anchor="middle" x="103.02" y="-304.5" font-family="Noto Sans CJK SC" font-size="10.00" fill="#e2e8f0">STRM 媒体客户端</text>
</g>
<!-- Strm -->
<g id="node9" class="node">
<title>Strm</title>
<path fill="#111d2c" stroke="#334155" d="M366.81,-346.76C366.81,-346.76 324.03,-346.76 324.03,-346.76 318.03,-346.76 312.03,-340.76 312.03,-334.76 312.03,-334.76 312.03,-317.24 312.03,-317.24 312.03,-311.24 318.03,-305.24 324.03,-305.24 324.03,-305.24 366.81,-305.24 366.81,-305.24 372.81,-305.24 378.81,-311.24 378.81,-317.24 378.81,-317.24 378.81,-334.76 378.81,-334.76 378.81,-340.76 372.81,-346.76 366.81,-346.76"/>
<text xml:space="preserve" text-anchor="middle" x="345.42" y="-331.5" font-family="Noto Sans CJK SC" font-size="10.00" fill="#e2e8f0">/strm/*</text>
<text xml:space="preserve" text-anchor="middle" x="345.42" y="-316.5" font-family="Noto Sans CJK SC" font-size="10.00" fill="#e2e8f0">独立 Token</text>
</g>
<!-- MediaClient&#45;&gt;Strm -->
<g id="edge10" class="edge">
<title>MediaClient&#45;&gt;Strm</title>
<path fill="none" stroke="#64748b" d="M160.08,-316.8C204.17,-319 264.55,-322.01 304.01,-323.98"/>
<polygon fill="#64748b" stroke="#64748b" points="303.5,-326.23 310.1,-324.29 303.72,-321.69 303.5,-326.23"/>
</g>
<!-- Auth&#45;&gt;Routes -->
<g id="edge5" class="edge">
<title>Auth&#45;&gt;Routes</title>
<path fill="none" stroke="#64748b" d="M401.43,-167.16C419.54,-174.13 439.57,-181.84 457.31,-188.66"/>
<polygon fill="#64748b" stroke="#64748b" points="456.47,-190.78 463.35,-190.99 458.1,-186.53 456.47,-190.78"/>
</g>
<!-- Static -->
<g id="node8" class="node">
<title>Static</title>
<path fill="#111d2c" stroke="#334155" d="M540.84,-166.76C540.84,-166.76 476.31,-166.76 476.31,-166.76 470.31,-166.76 464.31,-160.76 464.31,-154.76 464.31,-154.76 464.31,-137.24 464.31,-137.24 464.31,-131.24 470.31,-125.24 476.31,-125.24 476.31,-125.24 540.84,-125.24 540.84,-125.24 546.84,-125.24 552.84,-131.24 552.84,-137.24 552.84,-137.24 552.84,-154.76 552.84,-154.76 552.84,-160.76 546.84,-166.76 540.84,-166.76"/>
<text xml:space="preserve" text-anchor="middle" x="508.58" y="-151.5" font-family="Noto Sans CJK SC" font-size="10.00" fill="#e2e8f0">ServeDir static/</text>
<text xml:space="preserve" text-anchor="middle" x="508.58" y="-136.5" font-family="Noto Sans CJK SC" font-size="10.00" fill="#e2e8f0">Service Worker</text>
</g>
<!-- Auth&#45;&gt;Static -->
<g id="edge6" class="edge">
<title>Auth&#45;&gt;Static</title>
<path fill="none" stroke="#64748b" d="M413.36,-146C427.68,-146 442.58,-146 456.2,-146"/>
<polygon fill="#64748b" stroke="#64748b" points="456.04,-148.28 462.54,-146 456.04,-143.73 456.04,-148.28"/>
</g>
<!-- TelegramAuth&#45;&gt;Routes -->
<g id="edge4" class="edge">
<title>TelegramAuth&#45;&gt;Routes</title>
<path fill="none" stroke="#64748b" d="M396.53,-208C415.69,-208 437.55,-208 456.78,-208"/>
<polygon fill="#64748b" stroke="#64748b" points="456.55,-210.28 463.05,-208 456.55,-205.73 456.55,-210.28"/>
</g>
<!-- Context -->
<g id="node11" class="node">
<title>Context</title>
<path fill="#052e16" stroke="#22c55e" d="M696.87,-228.76C696.87,-228.76 615.84,-228.76 615.84,-228.76 609.84,-228.76 603.84,-222.76 603.84,-216.76 603.84,-216.76 603.84,-199.24 603.84,-199.24 603.84,-193.24 609.84,-187.24 615.84,-187.24 615.84,-187.24 696.87,-187.24 696.87,-187.24 702.87,-187.24 708.87,-193.24 708.87,-199.24 708.87,-199.24 708.87,-216.76 708.87,-216.76 708.87,-222.76 702.87,-228.76 696.87,-228.76"/>
<text xml:space="preserve" text-anchor="middle" x="656.36" y="-213.5" font-family="Noto Sans CJK SC" font-size="10.00" fill="#e2e8f0">AppContext</text>
<text xml:space="preserve" text-anchor="middle" x="656.36" y="-198.5" font-family="Noto Sans CJK SC" font-size="10.00" fill="#e2e8f0">共享依赖与生命周期</text>
</g>
<!-- Routes&#45;&gt;Context -->
<g id="edge12" class="edge">
<title>Routes&#45;&gt;Context</title>
<path fill="none" stroke="#64748b" d="M552.53,-208C565.99,-208 581.1,-208 595.51,-208"/>
<polygon fill="#64748b" stroke="#64748b" points="595.42,-210.28 601.92,-208 595.42,-205.73 595.42,-210.28"/>
</g>
<!-- Static&#45;&gt;Browser -->
<g id="edge7" class="edge">
<title>Static&#45;&gt;Browser</title>
<path fill="none" stroke="#64748b" d="M487.09,-125C466.99,-104.38 439.31,-76 439.31,-76 439.31,-76 413.31,-67 413.31,-67 413.31,-67 269.53,-67 269.53,-67 269.53,-67 215.03,-76 215.03,-76 215.03,-76 183.66,-90.7 154.27,-104.46"/>
<polygon fill="#64748b" stroke="#64748b" points="153.55,-102.29 148.62,-107.1 155.48,-106.41 153.55,-102.29"/>
</g>
<!-- Quark -->
<g id="node23" class="node">
<title>Quark</title>
<path fill="#111d2c" stroke="#334155" d="M1501.23,-172C1501.23,-172 1402.2,-172 1402.2,-172 1396.2,-172 1390.2,-166 1390.2,-160 1390.2,-160 1390.2,-148 1390.2,-148 1390.2,-142 1396.2,-136 1402.2,-136 1402.2,-136 1501.23,-136 1501.23,-136 1507.23,-136 1513.23,-142 1513.23,-148 1513.23,-148 1513.23,-160 1513.23,-160 1513.23,-166 1507.23,-172 1501.23,-172"/>
<text xml:space="preserve" text-anchor="middle" x="1451.71" y="-152" font-family="Noto Sans CJK SC" font-size="10.00" fill="#e2e8f0">Quark 分享 / 网盘 / 签到</text>
</g>
<!-- Strm&#45;&gt;Quark -->
<g id="edge11" class="edge">
<title>Strm&#45;&gt;Quark</title>
<path fill="none" stroke="#64748b" d="M379.03,-346.44C426.12,-375.95 507.58,-427 507.58,-427 507.58,-427 507.58,-427 1103.18,-427 1103.18,-427 1304.21,-336 1304.21,-336 1304.21,-336 1339.21,-182 1339.21,-182 1339.21,-182 1359.16,-176.99 1382.18,-171.21"/>
<polygon fill="#64748b" stroke="#64748b" points="1382.52,-173.47 1388.27,-169.68 1381.41,-169.06 1382.52,-173.47"/>
</g>
<!-- Queue -->
<g id="node13" class="node">
<title>Queue</title>
<path fill="#134e4a" stroke="#334155" d="M871.28,-123.76C871.28,-123.76 775.25,-123.76 775.25,-123.76 769.25,-123.76 763.25,-117.76 763.25,-111.76 763.25,-111.76 763.25,-94.24 763.25,-94.24 763.25,-88.24 769.25,-82.24 775.25,-82.24 775.25,-82.24 871.28,-82.24 871.28,-82.24 877.28,-82.24 883.28,-88.24 883.28,-94.24 883.28,-94.24 883.28,-111.76 883.28,-111.76 883.28,-117.76 877.28,-123.76 871.28,-123.76"/>
<text xml:space="preserve" text-anchor="middle" x="823.26" y="-108.5" font-family="Noto Sans CJK SC" font-size="10.00" fill="#e2e8f0">JobQueue + Worker</text>
<text xml:space="preserve" text-anchor="middle" x="823.26" y="-93.5" font-family="Noto Sans CJK SC" font-size="10.00" fill="#e2e8f0">幂等 / 并发 / 重试 / 恢复</text>
</g>
<!-- SSE&#45;&gt;Queue -->
<g id="edge13" class="edge">
<title>SSE&#45;&gt;Queue</title>
<path fill="none" stroke="#64748b" d="M373.07,-264.94C456.78,-258.47 708.87,-239 708.87,-239 708.87,-239 759.87,-134 759.87,-134 759.87,-134 765.22,-131.34 772.8,-127.58"/>
<polygon fill="#64748b" stroke="#64748b" points="773.45,-129.79 778.26,-124.86 771.42,-125.72 773.45,-129.79"/>
</g>
<!-- Services -->
<g id="node12" class="node">
<title>Services</title>
<path fill="#111d2c" stroke="#334155" d="M1065.18,-245.26C1065.18,-245.26 949.65,-245.26 949.65,-245.26 943.65,-245.26 937.65,-239.26 937.65,-233.26 937.65,-233.26 937.65,-200.74 937.65,-200.74 937.65,-194.74 943.65,-188.74 949.65,-188.74 949.65,-188.74 1065.18,-188.74 1065.18,-188.74 1071.18,-188.74 1077.18,-194.74 1077.18,-200.74 1077.18,-200.74 1077.18,-233.26 1077.18,-233.26 1077.18,-239.26 1071.18,-245.26 1065.18,-245.26"/>
<text xml:space="preserve" text-anchor="middle" x="1007.42" y="-230" font-family="Noto Sans CJK SC" font-size="10.00" fill="#e2e8f0">Services</text>
<text xml:space="preserve" text-anchor="middle" x="1007.42" y="-215" font-family="Noto Sans CJK SC" font-size="10.00" fill="#e2e8f0">检查 / 进度完结 / 转存 / 换源</text>
<text xml:space="preserve" text-anchor="middle" x="1007.42" y="-200" font-family="Noto Sans CJK SC" font-size="10.00" fill="#e2e8f0">元数据 / 日历 / 通知 / STRM</text>
</g>
<!-- Context&#45;&gt;Services -->
<g id="edge14" class="edge">
<title>Context&#45;&gt;Services</title>
<path fill="none" stroke="#64748b" d="M709.24,-209.34C767.57,-210.84 862.87,-213.3 929.79,-215.02"/>
<polygon fill="#64748b" stroke="#64748b" points="929.32,-217.29 935.88,-215.18 929.44,-212.74 929.32,-217.29"/>
</g>
<!-- Context&#45;&gt;Queue -->
<g id="edge15" class="edge">
<title>Context&#45;&gt;Queue</title>
<path fill="none" stroke="#64748b" d="M686.73,-186.79C717.02,-164.93 759.87,-134 759.87,-134 759.87,-134 765.22,-131.34 772.8,-127.58"/>
<polygon fill="#64748b" stroke="#64748b" points="773.45,-129.79 778.26,-124.86 771.42,-125.72 773.45,-129.79"/>
</g>
<!-- Schedulers -->
<g id="node14" class="node">
<title>Schedulers</title>
<path fill="#111d2c" stroke="#334155" d="M874.65,-200.26C874.65,-200.26 771.87,-200.26 771.87,-200.26 765.87,-200.26 759.87,-194.26 759.87,-188.26 759.87,-188.26 759.87,-155.74 759.87,-155.74 759.87,-149.74 765.87,-143.74 771.87,-143.74 771.87,-143.74 874.65,-143.74 874.65,-143.74 880.65,-143.74 886.65,-149.74 886.65,-155.74 886.65,-155.74 886.65,-188.26 886.65,-188.26 886.65,-194.26 880.65,-200.26 874.65,-200.26"/>
<text xml:space="preserve" text-anchor="middle" x="823.26" y="-185" font-family="Noto Sans CJK SC" font-size="10.00" fill="#e2e8f0">后台服务</text>
<text xml:space="preserve" text-anchor="middle" x="823.26" y="-170" font-family="Noto Sans CJK SC" font-size="10.00" fill="#e2e8f0">订阅 / 签到 / 下载监控</text>
<text xml:space="preserve" text-anchor="middle" x="823.26" y="-155" font-family="Noto Sans CJK SC" font-size="10.00" fill="#e2e8f0">备份维护 / Telegram Bot</text>
</g>
<!-- Context&#45;&gt;Schedulers -->
<g id="edge16" class="edge">
<title>Context&#45;&gt;Schedulers</title>
<path fill="none" stroke="#64748b" d="M709.08,-196.71C722.67,-193.74 737.57,-190.49 751.96,-187.35"/>
<polygon fill="#64748b" stroke="#64748b" points="752.08,-189.65 757.95,-186.04 751.11,-185.2 752.08,-189.65"/>
</g>
<!-- Metrics -->
<g id="node16" class="node">
<title>Metrics</title>
<path fill="#111d2c" stroke="#334155" d="M861.53,-283.76C861.53,-283.76 785,-283.76 785,-283.76 779,-283.76 773,-277.76 773,-271.76 773,-271.76 773,-254.24 773,-254.24 773,-248.24 779,-242.24 785,-242.24 785,-242.24 861.53,-242.24 861.53,-242.24 867.53,-242.24 873.53,-248.24 873.53,-254.24 873.53,-254.24 873.53,-271.76 873.53,-271.76 873.53,-277.76 867.53,-283.76 861.53,-283.76"/>
<text xml:space="preserve" text-anchor="middle" x="823.26" y="-268.5" font-family="Noto Sans CJK SC" font-size="10.00" fill="#e2e8f0">Tracing + Metrics</text>
<text xml:space="preserve" text-anchor="middle" x="823.26" y="-253.5" font-family="Noto Sans CJK SC" font-size="10.00" fill="#e2e8f0">诊断 / Prometheus</text>
</g>
<!-- Context&#45;&gt;Metrics -->
<g id="edge17" class="edge">
<title>Context&#45;&gt;Metrics</title>
<path fill="none" stroke="#64748b" d="M709.08,-225.25C727.01,-231.23 747.2,-237.96 765.51,-244.07"/>
<polygon fill="#64748b" stroke="#64748b" points="764.37,-246.09 771.26,-245.99 765.81,-241.77 764.37,-246.09"/>
</g>
<!-- Events -->
<g id="node15" class="node">
<title>Events</title>
<path fill="#111d2c" stroke="#334155" d="M1284.21,-123.76C1284.21,-123.76 1140.18,-123.76 1140.18,-123.76 1134.18,-123.76 1128.18,-117.76 1128.18,-111.76 1128.18,-111.76 1128.18,-94.24 1128.18,-94.24 1128.18,-88.24 1134.18,-82.24 1140.18,-82.24 1140.18,-82.24 1284.21,-82.24 1284.21,-82.24 1290.21,-82.24 1296.21,-88.24 1296.21,-94.24 1296.21,-94.24 1296.21,-111.76 1296.21,-111.76 1296.21,-117.76 1290.21,-123.76 1284.21,-123.76"/>
<text xml:space="preserve" text-anchor="middle" x="1212.2" y="-108.5" font-family="Noto Sans CJK SC" font-size="10.00" fill="#e2e8f0">AutomationEvent</text>
<text xml:space="preserve" text-anchor="middle" x="1212.2" y="-93.5" font-family="Noto Sans CJK SC" font-size="10.00" fill="#e2e8f0">correlation / stage / job / episode</text>
</g>
<!-- Services&#45;&gt;Events -->
<g id="edge20" class="edge">
<title>Services&#45;&gt;Events</title>
<path fill="none" stroke="#64748b" d="M1049.63,-188.44C1084.28,-164.43 1128.18,-134 1128.18,-134 1128.18,-134 1136.19,-131.01 1147.23,-126.89"/>
<polygon fill="#64748b" stroke="#64748b" points="1147.74,-129.13 1153.03,-124.72 1146.14,-124.86 1147.74,-129.13"/>
</g>
<!-- Provider -->
<g id="node17" class="node">
<title>Provider</title>
<path fill="#111d2c" stroke="#334155" d="M1261.34,-185.76C1261.34,-185.76 1163.06,-185.76 1163.06,-185.76 1157.06,-185.76 1151.06,-179.76 1151.06,-173.76 1151.06,-173.76 1151.06,-156.24 1151.06,-156.24 1151.06,-150.24 1157.06,-144.24 1163.06,-144.24 1163.06,-144.24 1261.34,-144.24 1261.34,-144.24 1267.34,-144.24 1273.34,-150.24 1273.34,-156.24 1273.34,-156.24 1273.34,-173.76 1273.34,-173.76 1273.34,-179.76 1267.34,-185.76 1261.34,-185.76"/>
<text xml:space="preserve" text-anchor="middle" x="1212.2" y="-170.5" font-family="Noto Sans CJK SC" font-size="10.00" fill="#e2e8f0">CloudDriveProvider</text>
<text xml:space="preserve" text-anchor="middle" x="1212.2" y="-155.5" font-family="Noto Sans CJK SC" font-size="10.00" fill="#e2e8f0">Quark 生产 / Mock 测试</text>
</g>
<!-- Services&#45;&gt;Provider -->
<g id="edge22" class="edge">
<title>Services&#45;&gt;Provider</title>
<path fill="none" stroke="#64748b" d="M1077.63,-199.25C1098.79,-193.83 1122.02,-187.87 1143.1,-182.46"/>
<polygon fill="#64748b" stroke="#64748b" points="1143.56,-184.69 1149.29,-180.87 1142.43,-180.28 1143.56,-184.69"/>
</g>
<!-- Stores -->
<g id="node18" class="node">
<title>Stores</title>
<path fill="#422006" stroke="#f59e0b" d="M1537.6,-72.26C1537.6,-72.26 1365.82,-72.26 1365.82,-72.26 1359.82,-72.26 1353.82,-66.26 1353.82,-60.26 1353.82,-60.26 1353.82,-27.74 1353.82,-27.74 1353.82,-21.74 1359.82,-15.74 1365.82,-15.74 1365.82,-15.74 1537.6,-15.74 1537.6,-15.74 1543.6,-15.74 1549.6,-21.74 1549.6,-27.74 1549.6,-27.74 1549.6,-60.26 1549.6,-60.26 1549.6,-66.26 1543.6,-72.26 1537.6,-72.26"/>
<text xml:space="preserve" text-anchor="middle" x="1451.71" y="-57" font-family="Noto Sans CJK SC" font-size="10.00" fill="#e2e8f0">Settings / Subscriptions / Notifications</text>
<text xml:space="preserve" text-anchor="middle" x="1451.71" y="-42" font-family="Noto Sans CJK SC" font-size="10.00" fill="#e2e8f0">Jobs + Archive / Automation Events</text>
<text xml:space="preserve" text-anchor="middle" x="1451.71" y="-27" font-family="Noto Sans CJK SC" font-size="10.00" fill="#e2e8f0">Automation Token / Telegram State</text>
</g>
<!-- Services&#45;&gt;Stores -->
<g id="edge24" class="edge">
<title>Services&#45;&gt;Stores</title>
<path fill="none" stroke="#64748b" d="M1032.08,-188.35C1066.98,-146.1 1128.18,-72 1128.18,-72 1128.18,-72 1251.5,-61.29 1345.64,-53.12"/>
<polygon fill="#64748b" stroke="#64748b" points="1345.72,-55.4 1352,-52.57 1345.32,-50.87 1345.72,-55.4"/>
</g>
<!-- Search -->
<g id="node22" class="node">
<title>Search</title>
<path fill="#111d2c" stroke="#334155" d="M1466.71,-340C1466.71,-340 1436.71,-340 1436.71,-340 1430.71,-340 1424.71,-334 1424.71,-328 1424.71,-328 1424.71,-316 1424.71,-316 1424.71,-310 1430.71,-304 1436.71,-304 1436.71,-304 1466.71,-304 1466.71,-304 1472.71,-304 1478.71,-310 1478.71,-316 1478.71,-316 1478.71,-328 1478.71,-328 1478.71,-334 1472.71,-340 1466.71,-340"/>
<text xml:space="preserve" text-anchor="middle" x="1451.71" y="-320" font-family="Noto Sans CJK SC" font-size="10.00" fill="#e2e8f0">PanSou</text>
</g>
<!-- Services&#45;&gt;Search -->
<g id="edge30" class="edge">
<title>Services&#45;&gt;Search</title>
<path fill="none" stroke="#64748b" d="M1077.39,-241.19C1104.01,-250.52 1128.18,-259 1128.18,-259 1128.18,-259 1333.81,-299.17 1416.69,-315.35"/>
<polygon fill="#64748b" stroke="#64748b" points="1416.01,-317.54 1422.83,-316.55 1416.89,-313.08 1416.01,-317.54"/>
</g>
<!-- TMDB -->
<g id="node24" class="node">
<title>TMDB</title>
<path fill="#111d2c" stroke="#334155" d="M1491.85,-284C1491.85,-284 1411.57,-284 1411.57,-284 1405.57,-284 1399.57,-278 1399.57,-272 1399.57,-272 1399.57,-260 1399.57,-260 1399.57,-254 1405.57,-248 1411.57,-248 1411.57,-248 1491.85,-248 1491.85,-248 1497.85,-248 1503.85,-254 1503.85,-260 1503.85,-260 1503.85,-272 1503.85,-272 1503.85,-278 1497.85,-284 1491.85,-284"/>
<text xml:space="preserve" text-anchor="middle" x="1451.71" y="-264" font-family="Noto Sans CJK SC" font-size="10.00" fill="#e2e8f0">TMDB 元数据 / 图片</text>
</g>
<!-- Services&#45;&gt;TMDB -->
<g id="edge31" class="edge">
<title>Services&#45;&gt;TMDB</title>
<path fill="none" stroke="#64748b" d="M1077.54,-228.06C1091.6,-230.31 1102.18,-232 1102.18,-232 1102.18,-232 1291.92,-250.51 1391.4,-260.21"/>
<polygon fill="#64748b" stroke="#64748b" points="1391.09,-262.47 1397.78,-260.84 1391.53,-257.94 1391.09,-262.47"/>
</g>
<!-- Aria2 -->
<g id="node25" class="node">
<title>Aria2</title>
<path fill="#111d2c" stroke="#334155" d="M1485.85,-458C1485.85,-458 1417.57,-458 1417.57,-458 1411.57,-458 1405.57,-452 1405.57,-446 1405.57,-446 1405.57,-434 1405.57,-434 1405.57,-428 1411.57,-422 1417.57,-422 1417.57,-422 1485.85,-422 1485.85,-422 1491.85,-422 1497.85,-428 1497.85,-434 1497.85,-434 1497.85,-446 1497.85,-446 1497.85,-452 1491.85,-458 1485.85,-458"/>
<text xml:space="preserve" text-anchor="middle" x="1451.71" y="-438" font-family="Noto Sans CJK SC" font-size="10.00" fill="#e2e8f0">Aria2 JSON&#45;RPC</text>
</g>
<!-- Services&#45;&gt;Aria2 -->
<g id="edge32" class="edge">
<title>Services&#45;&gt;Aria2</title>
<path fill="none" stroke="#64748b" d="M1038.33,-245.72C1073.8,-279.78 1128.18,-332 1128.18,-332 1128.18,-332 1339.21,-412 1339.21,-412 1339.21,-412 1368.94,-419.47 1397.69,-426.69"/>
<polygon fill="#64748b" stroke="#64748b" points="1397.03,-428.87 1403.89,-428.24 1398.14,-424.45 1397.03,-428.87"/>
</g>
<!-- Library -->
<g id="node26" class="node">
<title>Library</title>
<path fill="#111d2c" stroke="#334155" d="M1496.35,-228C1496.35,-228 1407.07,-228 1407.07,-228 1401.07,-228 1395.07,-222 1395.07,-216 1395.07,-216 1395.07,-204 1395.07,-204 1395.07,-198 1401.07,-192 1407.07,-192 1407.07,-192 1496.35,-192 1496.35,-192 1502.35,-192 1508.35,-198 1508.35,-204 1508.35,-204 1508.35,-216 1508.35,-216 1508.35,-222 1502.35,-228 1496.35,-228"/>
<text xml:space="preserve" text-anchor="middle" x="1451.71" y="-208" font-family="Noto Sans CJK SC" font-size="10.00" fill="#e2e8f0">Jellyfin / Emby / Plex</text>
</g>
<!-- Services&#45;&gt;Library -->
<g id="edge33" class="edge">
<title>Services&#45;&gt;Library</title>
<path fill="none" stroke="#64748b" d="M1077.52,-215.91C1162.26,-214.57 1304.7,-212.31 1386.93,-211.01"/>
<polygon fill="#64748b" stroke="#64748b" points="1386.72,-213.29 1393.18,-210.91 1386.64,-208.74 1386.72,-213.29"/>
</g>
<!-- Push -->
<g id="node27" class="node">
<title>Push</title>
<path fill="#111d2c" stroke="#334155" d="M1517.35,-401.76C1517.35,-401.76 1386.07,-401.76 1386.07,-401.76 1380.07,-401.76 1374.07,-395.76 1374.07,-389.76 1374.07,-389.76 1374.07,-372.24 1374.07,-372.24 1374.07,-366.24 1380.07,-360.24 1386.07,-360.24 1386.07,-360.24 1517.35,-360.24 1517.35,-360.24 1523.35,-360.24 1529.35,-366.24 1529.35,-372.24 1529.35,-372.24 1529.35,-389.76 1529.35,-389.76 1529.35,-395.76 1523.35,-401.76 1517.35,-401.76"/>
<text xml:space="preserve" text-anchor="middle" x="1451.71" y="-386.5" font-family="Noto Sans CJK SC" font-size="10.00" fill="#e2e8f0">Browser Push / Webhook</text>
<text xml:space="preserve" text-anchor="middle" x="1451.71" y="-371.5" font-family="Noto Sans CJK SC" font-size="10.00" fill="#e2e8f0">Telegram / 企业微信 / 其他渠道</text>
</g>
<!-- Services&#45;&gt;Push -->
<g id="edge34" class="edge">
<title>Services&#45;&gt;Push</title>
<path fill="none" stroke="#64748b" d="M1054.03,-245.57C1087.88,-266.76 1128.18,-292 1128.18,-292 1128.18,-292 1270.65,-331.31 1366.21,-357.68"/>
<polygon fill="#64748b" stroke="#64748b" points="1365.54,-359.86 1372.41,-359.39 1366.75,-355.47 1365.54,-359.86"/>
</g>
<!-- Queue&#45;&gt;Services -->
<g id="edge18" class="edge">
<title>Queue&#45;&gt;Services</title>
<path fill="none" stroke="#64748b" d="M866.91,-124.19C877.88,-129.64 886.65,-134 886.65,-134 886.65,-134 925.56,-160.97 959.02,-184.16"/>
<polygon fill="#64748b" stroke="#64748b" points="957.32,-185.74 963.95,-187.57 959.91,-182 957.32,-185.74"/>
</g>
<!-- Queue&#45;&gt;Events -->
<g id="edge21" class="edge">
<title>Queue&#45;&gt;Events</title>
<path fill="none" stroke="#64748b" d="M883.45,-103C946.46,-103 1046.98,-103 1120.1,-103"/>
<polygon fill="#64748b" stroke="#64748b" points="1119.96,-105.28 1126.46,-103 1119.96,-100.73 1119.96,-105.28"/>
</g>
<!-- Queue&#45;&gt;Stores -->
<g id="edge25" class="edge">
<title>Queue&#45;&gt;Stores</title>
<path fill="none" stroke="#64748b" d="M883.58,-93.05C972.03,-78.2 1128.18,-52 1128.18,-52 1128.18,-52 1251.5,-48.94 1345.64,-46.61"/>
<polygon fill="#64748b" stroke="#64748b" points="1345.55,-48.88 1351.99,-46.45 1345.44,-44.34 1345.55,-48.88"/>
</g>
<!-- Schedulers&#45;&gt;Services -->
<g id="edge19" class="edge">
<title>Schedulers&#45;&gt;Services</title>
<path fill="none" stroke="#64748b" d="M886.95,-187.49C900.79,-190.91 915.61,-194.57 929.94,-198.11"/>
<polygon fill="#64748b" stroke="#64748b" points="929.05,-200.23 935.91,-199.58 930.14,-195.81 929.05,-200.23"/>
</g>
<!-- Events&#45;&gt;Stores -->
<g id="edge26" class="edge">
<title>Events&#45;&gt;Stores</title>
<path fill="none" stroke="#64748b" d="M1296.6,-82.28C1312.6,-78.31 1329.53,-74.1 1346.1,-69.99"/>
<polygon fill="#64748b" stroke="#64748b" points="1346.45,-72.24 1352.21,-68.47 1345.35,-67.83 1346.45,-72.24"/>
</g>
<!-- Provider&#45;&gt;Quark -->
<g id="edge23" class="edge">
<title>Provider&#45;&gt;Quark</title>
<path fill="none" stroke="#64748b" d="M1273.74,-162.2C1306.84,-160.66 1347.95,-158.76 1382.21,-157.17"/>
<polygon fill="#64748b" stroke="#64748b" points="1381.96,-159.46 1388.35,-156.89 1381.75,-154.92 1381.96,-159.46"/>
</g>
<!-- Schema -->
<g id="node19" class="node">
<title>Schema</title>
<path fill="#111d2c" stroke="#334155" d="M1736.99,-72.26C1736.99,-72.26 1628.21,-72.26 1628.21,-72.26 1622.21,-72.26 1616.21,-66.26 1616.21,-60.26 1616.21,-60.26 1616.21,-27.74 1616.21,-27.74 1616.21,-21.74 1622.21,-15.74 1628.21,-15.74 1628.21,-15.74 1736.99,-15.74 1736.99,-15.74 1742.99,-15.74 1748.99,-21.74 1748.99,-27.74 1748.99,-27.74 1748.99,-60.26 1748.99,-60.26 1748.99,-66.26 1742.99,-72.26 1736.99,-72.26"/>
<text xml:space="preserve" text-anchor="middle" x="1682.6" y="-57" font-family="Noto Sans CJK SC" font-size="10.00" fill="#e2e8f0">schema_version: 1</text>
<text xml:space="preserve" text-anchor="middle" x="1682.6" y="-42" font-family="Noto Sans CJK SC" font-size="10.00" fill="#e2e8f0">原子写入 / 0600 / 迁移备份</text>
<text xml:space="preserve" text-anchor="middle" x="1682.6" y="-27" font-family="Noto Sans CJK SC" font-size="10.00" fill="#e2e8f0">损坏隔离 / 未来版本保护</text>
</g>
<!-- Stores&#45;&gt;Schema -->
<g id="edge27" class="edge">
<title>Stores&#45;&gt;Schema</title>
<path fill="none" stroke="#64748b" d="M1549.78,-44C1569.29,-44 1589.49,-44 1608.04,-44"/>
<polygon fill="#64748b" stroke="#64748b" points="1607.87,-46.28 1614.37,-44 1607.87,-41.73 1607.87,-46.28"/>
</g>
<!-- Data -->
<g id="node21" class="node">
<title>Data</title>
<path fill="#422006" stroke="#334155" d="M1861.52,-58.92C1861.52,-60.75 1847.73,-62.23 1830.76,-62.23 1813.78,-62.23 1799.99,-60.75 1799.99,-58.92 1799.99,-58.92 1799.99,-29.08 1799.99,-29.08 1799.99,-27.25 1813.78,-25.77 1830.76,-25.77 1847.73,-25.77 1861.52,-27.25 1861.52,-29.08 1861.52,-29.08 1861.52,-58.92 1861.52,-58.92"/>
<path fill="none" stroke="#334155" d="M1861.52,-58.92C1861.52,-57.09 1847.73,-55.6 1830.76,-55.6 1813.78,-55.6 1799.99,-57.09 1799.99,-58.92"/>
<text xml:space="preserve" text-anchor="middle" x="1830.76" y="-42" font-family="Noto Sans CJK SC" font-size="10.00" fill="#e2e8f0">DATA_DIR</text>
</g>
<!-- Schema&#45;&gt;Data -->
<g id="edge28" class="edge">
<title>Schema&#45;&gt;Data</title>
<path fill="none" stroke="#64748b" d="M1749.41,-44C1763.97,-44 1778.91,-44 1791.9,-44"/>
<polygon fill="#64748b" stroke="#64748b" points="1791.71,-46.28 1798.21,-44 1791.71,-41.73 1791.71,-46.28"/>
</g>
<!-- Backup -->
<g id="node20" class="node">
<title>Backup</title>
<path fill="#111d2c" stroke="#334155" d="M2023.55,-64.76C2023.55,-64.76 1924.52,-64.76 1924.52,-64.76 1918.52,-64.76 1912.52,-58.76 1912.52,-52.76 1912.52,-52.76 1912.52,-35.24 1912.52,-35.24 1912.52,-29.24 1918.52,-23.24 1924.52,-23.24 1924.52,-23.24 2023.55,-23.24 2023.55,-23.24 2029.55,-23.24 2035.55,-29.24 2035.55,-35.24 2035.55,-35.24 2035.55,-52.76 2035.55,-52.76 2035.55,-58.76 2029.55,-64.76 2023.55,-64.76"/>
<text xml:space="preserve" text-anchor="middle" x="1974.04" y="-49.5" font-family="Noto Sans CJK SC" font-size="10.00" fill="#e2e8f0">备份清单 + SHA&#45;256</text>
<text xml:space="preserve" text-anchor="middle" x="1974.04" y="-34.5" font-family="Noto Sans CJK SC" font-size="10.00" fill="#e2e8f0">隔离恢复验证 / 外部复制</text>
</g>
<!-- Data&#45;&gt;Backup -->
<g id="edge29" class="edge">
<title>Data&#45;&gt;Backup</title>
<path fill="none" stroke="#64748b" d="M1861.72,-44C1874.27,-44 1889.42,-44 1904.45,-44"/>
<polygon fill="#64748b" stroke="#64748b" points="1904.27,-46.28 1910.77,-44 1904.27,-41.73 1904.27,-46.28"/>
</g>
</g>
</svg>
